<svg width="24" height="24" viewBox="0 0 24 24" fill="none" xmlns="http://www.w3.org/2000/svg">
<path d="M11.5 17.4988V15.5C11.5 15.2239 11.7239 15 12 15C12.2761 15 12.5 15.2239 12.5 15.5V17.4988C12.5 17.7749 12.2761 17.9988 12 17.9988C11.7239 17.9988 11.5 17.7749 11.5 17.4988Z" fill="black" fill-opacity="0.8"/>
<path d="M17 20.4998H17L6.9998 20.5003C6.9998 20.5003 6.99979 20.5003 6.99978 20.5003C5.81929 20.5003 4.85938 19.5404 4.85938 18.3599V18.0026C4.85938 14.8819 7.39863 12.3409 10.5189 12.3409H10.519L13.4809 12.3404C13.4809 12.3404 13.4809 12.3404 13.4809 12.3404C16.6014 12.3405 19.1404 14.8795 19.1404 18V18.3594C19.1404 19.5399 18.1805 20.4998 17 20.4998Z" stroke="black" stroke-opacity="0.8"/>
<path d="M8.5 7C8.5 5.06716 10.0672 3.5 12 3.5C13.9328 3.5 15.5 5.06716 15.5 7C15.5 8.93284 13.9328 10.5 12 10.5C10.0672 10.5 8.5 8.93284 8.5 7Z" stroke="black" stroke-opacity="0.8"/>
</svg>
