<svg width="24" height="24" viewBox="0 0 24 24" fill="none" xmlns="http://www.w3.org/2000/svg">
<path d="M6 8.5H18C18.8284 8.5 19.5 9.17157 19.5 10V19C19.5 19.8284 18.8284 20.5 18 20.5H6C5.17157 20.5 4.5 19.8284 4.5 19V10C4.5 9.17157 5.17157 8.5 6 8.5Z" stroke="black"/>
<path d="M9 8.5V6C9 4.34315 10.3431 3 12 3V3C13.6569 3 15 4.34315 15 6V6" stroke="black" stroke-linecap="round"/>
<path d="M13 14.5C13 15.0523 12.5523 15.5 12 15.5C11.4477 15.5 11 15.0523 11 14.5C11 13.9477 11.4477 13.5 12 13.5C12.5523 13.5 13 13.9477 13 14.5Z" fill="black" fill-opacity="0.8"/>
</svg>
