<svg width="42" height="42" viewBox="0 0 42 42" fill="none" xmlns="http://www.w3.org/2000/svg">
<path d="M30.6551 21.9724C30.6387 19.1751 31.9061 17.0669 34.4654 15.5124C33.034 13.4616 30.8684 12.3337 28.0137 12.1163C25.3107 11.903 22.3535 13.6913 21.2707 13.6913C20.1264 13.6913 17.5096 12.1901 15.4506 12.1901C11.2014 12.2558 6.68555 15.578 6.68555 22.3374C6.68555 24.3349 7.05059 26.3979 7.78066 28.5225C8.75684 31.3198 12.276 38.1735 15.9469 38.0628C17.8664 38.0177 19.224 36.7011 21.7219 36.7011C24.1459 36.7011 25.401 38.0628 27.542 38.0628C31.2457 38.0095 34.4285 31.7792 35.3555 28.9737C30.3885 26.6317 30.6551 22.1159 30.6551 21.9724V21.9724Z" fill="white"/>
<path d="M26.3448 9.4623C28.4243 6.99316 28.2357 4.74551 28.1741 3.9375C26.3366 4.04414 24.212 5.18848 23.0021 6.59531C21.6691 8.10469 20.8857 9.9709 21.0538 12.075C23.039 12.2268 24.8519 11.2055 26.3448 9.4623Z" fill="white"/>
</svg>
