<svg width="18" height="18" viewBox="0 0 18 18" fill="none" xmlns="http://www.w3.org/2000/svg">
<path fill-rule="evenodd" clip-rule="evenodd" d="M14.1464 3.14645C14.3417 2.95118 14.6583 2.95118 14.8536 3.14645C15.0488 3.34171 15.0488 3.65829 14.8536 3.85355L9.70711 9L14.8536 14.1464C15.0488 14.3417 15.0488 14.6583 14.8536 14.8536C14.6583 15.0488 14.3417 15.0488 14.1464 14.8536L9 9.70711L3.85355 14.8536C3.65829 15.0488 3.34171 15.0488 3.14645 14.8536C2.95118 14.6583 2.95118 14.3417 3.14645 14.1464L8.29289 9L3.14645 3.85355C2.95119 3.65829 2.95119 3.34171 3.14645 3.14645C3.34171 2.95118 3.65829 2.95118 3.85355 3.14645L9 8.29289L14.1464 3.14645Z" fill="black"/>
</svg>
