<svg width="24" height="24" viewBox="0 0 24 24" fill="none" xmlns="http://www.w3.org/2000/svg">
<circle cx="12" cy="12" r="10" fill="#3396FF"/>
<path fill-rule="evenodd" clip-rule="evenodd" d="M12 18.1113C12.6136 18.1113 13.1111 17.6139 13.1111 17.0002L13.1111 16.5558L13.1111 11.4447C13.1111 10.831 12.6136 10.3336 12 10.3336V10.3336C11.3863 10.3336 10.8889 10.831 10.8889 11.4447L10.8889 16.5558L10.8889 17.0002C10.8889 17.6139 11.3863 18.1113 12 18.1113V18.1113Z" fill="white"/>
<path fill-rule="evenodd" clip-rule="evenodd" d="M12.7989 8.9052C13.0193 8.69978 13.1111 8.43834 13.1111 8.12088C13.1111 7.80342 13.0193 7.54198 12.7989 7.31789C12.5785 7.11248 12.3214 7.00043 12.0092 7.00043C11.6969 7.00043 11.4215 7.11248 11.2011 7.31789C10.9991 7.52331 10.8889 7.78475 10.8889 8.12088C10.8889 8.43834 10.9991 8.69978 11.2011 8.9052C11.4215 9.12929 11.6969 9.22266 12.0092 9.22266C12.3214 9.22266 12.5785 9.12929 12.7989 8.9052Z" fill="white"/>
</svg>
