<svg width="24" height="24" viewBox="0 0 24 24" fill="none" xmlns="http://www.w3.org/2000/svg">
<path d="M6.80385 3C10.0192 1.14359 13.9808 1.14359 17.1962 3C20.4115 4.85641 22.3923 8.28719 22.3923 12C22.3923 15.7128 20.4115 19.1436 17.1962 21C13.9808 22.8564 10.0192 22.8564 6.80385 21C3.58846 19.1436 1.6077 15.7128 1.6077 12C1.6077 8.28719 3.58846 4.85641 6.80385 3Z" fill="url(#paint0_linear_576:44039)"/>
<path d="M7.14465 3.59039C10.1492 1.85571 13.8509 1.85571 16.8555 3.59039C19.86 5.32506 21.7109 8.53087 21.7109 12.0002C21.7109 15.4696 19.86 18.6754 16.8555 20.4101C13.8509 22.1447 10.1492 22.1447 7.14465 20.4101C4.14011 18.6754 2.28923 15.4696 2.28923 12.0002C2.28923 8.53087 4.14011 5.32506 7.14465 3.59039Z" fill="url(#paint1_linear_576:44039)"/>
<path d="M7.2298 3.7375C10.1816 2.03326 13.8184 2.03326 16.7703 3.7375C19.7221 5.44174 21.5405 8.59131 21.5405 11.9998C21.5405 15.4083 19.7221 18.5578 16.7703 20.2621C13.8184 21.9663 10.1816 21.9663 7.2298 20.2621C4.27797 18.5578 2.45956 15.4083 2.45956 11.9998C2.45956 8.59131 4.27797 5.44174 7.2298 3.7375Z" fill="url(#paint2_linear_576:44039)"/>
<path d="M7.57036 4.32789C10.3113 2.74537 13.6884 2.74537 16.4294 4.32789C19.1704 5.9104 20.8589 8.835 20.8589 12C20.8589 15.165 19.1704 18.0896 16.4294 19.6722C13.6884 21.2547 10.3113 21.2547 7.57036 19.6722C4.82937 18.0896 3.14085 15.165 3.14085 12C3.14085 8.835 4.82937 5.9104 7.57036 4.32789Z" fill="url(#paint3_linear_576:44039)"/>
<path d="M7.74074 4.62308C10.3763 3.10144 13.6235 3.10144 16.259 4.62308C18.8946 6.14472 20.5182 8.95684 20.5182 12.0001C20.5182 15.0434 18.8946 17.8555 16.259 19.3772C13.6235 20.8988 10.3763 20.8988 7.74074 19.3772C5.10518 17.8555 3.4816 15.0434 3.4816 12.0001C3.4816 8.95684 5.10518 6.14472 7.74074 4.62308Z" fill="url(#paint4_linear_576:44039)"/>
<g filter="url(#filter0_i_576:44039)">
<path d="M7.04668 8.33666L9.26409 9.82108L11.4741 6.71439C11.5229 6.64567 11.5874 6.58965 11.6622 6.551C11.7369 6.51235 11.8198 6.49219 11.9039 6.49219C11.9879 6.49219 12.0708 6.51235 12.1456 6.551C12.2203 6.58965 12.2848 6.64567 12.3336 6.71439L14.5436 9.82108L16.7611 8.33666C16.845 8.28059 16.9431 8.24982 17.0439 8.24798C17.1447 8.24614 17.2439 8.27331 17.3298 8.32628C17.4157 8.37924 17.4847 8.45579 17.5286 8.54688C17.5726 8.63797 17.5896 8.73978 17.5778 8.8403L16.7104 16.2449C16.6952 16.3739 16.6335 16.4928 16.5369 16.5791C16.4402 16.6654 16.3154 16.713 16.1861 16.713C16.1861 16.713 15.0581 17.1225 11.9039 17.1225C8.74964 17.1225 7.62162 16.713 7.62162 16.713C7.49231 16.713 7.3675 16.6654 7.27087 16.5791C7.17423 16.4928 7.11249 16.3739 7.09736 16.2449L6.22993 8.83977C6.21821 8.7393 6.23536 8.63755 6.27936 8.54655C6.32336 8.45555 6.39237 8.37909 6.47824 8.32619C6.56411 8.27329 6.66326 8.24617 6.76398 8.24803C6.86471 8.24988 6.9628 8.28063 7.04668 8.33666Z" fill="url(#paint5_linear_576:44039)"/>
</g>
<path d="M10.5491 11.5936C10.2989 11.5936 10.1332 11.8533 10.2386 12.0802L11.3127 14.3912C11.4192 14.6203 11.6489 14.7669 11.9015 14.7669C12.1541 14.7669 12.3838 14.6203 12.4903 14.3912L13.5644 12.0802C13.6698 11.8533 13.5042 11.5936 13.2539 11.5936C13.1182 11.5936 12.9953 11.6738 12.9406 11.798L11.9018 14.159L11.9015 14.1592L11.9012 14.159L10.8624 11.798C10.8078 11.6738 10.6848 11.5936 10.5491 11.5936Z" fill="url(#paint6_linear_576:44039)" stroke="url(#paint7_linear_576:44039)" stroke-width="0.0257461"/>
<defs>
<filter id="filter0_i_576:44039" x="6.22635" y="6.49219" width="11.3551" height="10.7586" filterUnits="userSpaceOnUse" color-interpolation-filters="sRGB">
<feFlood flood-opacity="0" result="BackgroundImageFix"/>
<feBlend mode="normal" in="SourceGraphic" in2="BackgroundImageFix" result="shape"/>
<feColorMatrix in="SourceAlpha" type="matrix" values="0 0 0 0 0 0 0 0 0 0 0 0 0 0 0 0 0 0 127 0" result="hardAlpha"/>
<feOffset dy="0.128731"/>
<feGaussianBlur stdDeviation="0.514922"/>
<feComposite in2="hardAlpha" operator="arithmetic" k2="-1" k3="1"/>
<feColorMatrix type="matrix" values="0 0 0 0 1 0 0 0 0 1 0 0 0 0 1 0 0 0 0.7 0"/>
<feBlend mode="normal" in2="shape" result="effect1_innerShadow_576:44039"/>
</filter>
<linearGradient id="paint0_linear_576:44039" x1="12" y1="0" x2="12" y2="24" gradientUnits="userSpaceOnUse">
<stop stop-color="#FFE68C"/>
<stop offset="1" stop-color="#FFD339"/>
</linearGradient>
<linearGradient id="paint1_linear_576:44039" x1="8.22643" y1="2.72784" x2="11.461" y2="23.2133" gradientUnits="userSpaceOnUse">
<stop stop-color="white" stop-opacity="0.83"/>
<stop offset="1" stop-color="white" stop-opacity="0.23"/>
</linearGradient>
<linearGradient id="paint2_linear_576:44039" x1="7.67988" y1="2.27944" x2="18.0483" y2="23.0162" gradientUnits="userSpaceOnUse">
<stop stop-color="#FFF4CB"/>
<stop offset="1" stop-color="#FFDF6C"/>
</linearGradient>
<linearGradient id="paint3_linear_576:44039" x1="11.9999" y1="0.974879" x2="9.272" y2="22.2295" gradientUnits="userSpaceOnUse">
<stop offset="0.185597" stop-color="#FFD952"/>
<stop offset="1" stop-color="#FFCA41"/>
</linearGradient>
<linearGradient id="paint4_linear_576:44039" x1="9.41828" y1="-1.0326" x2="14.0904" y2="22.9428" gradientUnits="userSpaceOnUse">
<stop offset="0.194058" stop-color="#FFF8D3"/>
<stop offset="0.635563" stop-color="#FFD74B" stop-opacity="0.26"/>
<stop offset="0.881433" stop-color="#FFE68E" stop-opacity="0.84"/>
</linearGradient>
<linearGradient id="paint5_linear_576:44039" x1="7.13737" y1="5.5008" x2="14.0599" y2="20.6783" gradientUnits="userSpaceOnUse">
<stop stop-color="#FFFCF2"/>
<stop offset="0.0001" stop-color="#FFF9E2"/>
<stop offset="0.207855" stop-color="#FFFAE4"/>
<stop offset="0.692186" stop-color="#FFF4C5"/>
</linearGradient>
<linearGradient id="paint6_linear_576:44039" x1="11.7769" y1="14.754" x2="11.7769" y2="10.5169" gradientUnits="userSpaceOnUse">
<stop stop-color="#FEC601"/>
<stop offset="1" stop-color="#FED601"/>
</linearGradient>
<linearGradient id="paint7_linear_576:44039" x1="12.0261" y1="14.875" x2="11.7908" y2="11.6054" gradientUnits="userSpaceOnUse">
<stop stop-color="#FEC601"/>
<stop offset="1" stop-color="#FED601"/>
</linearGradient>
</defs>
</svg>
