<svg width="24" height="24" viewBox="0 0 24 24" fill="none" xmlns="http://www.w3.org/2000/svg">
<path d="M21.9556 14.8367L21.9307 15.617L21.8484 14.9585C21.5363 12.4558 20.3135 10.1523 18.41 8.48118C16.5065 6.81003 14.0533 5.88627 11.5116 5.88356L4.17235 5.87534L4.19866 5.05834C4.20602 4.83022 4.26218 4.60627 4.36341 4.40133C4.46465 4.1964 4.60865 4.01516 4.78586 3.86964C4.96307 3.72413 5.16943 3.61766 5.39127 3.55731C5.61311 3.49695 5.84535 3.48409 6.07258 3.51957L13.4786 4.67498C15.8971 5.05251 18.0934 6.29359 19.6544 8.16489C21.2155 10.0362 22.0338 12.4088 21.9556 14.8367Z" fill="#F86DB8"/>
<path d="M17.7892 20.595L10.4772 20.5882C8.59454 20.586 6.77754 19.9016 5.36772 18.6636C3.95789 17.4257 3.05232 15.7194 2.8212 13.8656L2.01044 7.37169C1.98671 7.18395 2.00355 6.99335 2.05982 6.81257C2.11609 6.63179 2.21051 6.46496 2.33681 6.32319C2.4631 6.18142 2.61836 6.06796 2.79228 5.99035C2.9662 5.91273 3.15477 5.87275 3.34547 5.87305H4.17378L4.00958 10.9907C3.95205 12.7891 4.55855 14.5465 5.71509 15.9325C6.87163 17.3185 8.49856 18.2377 10.2901 18.5172L18.4508 19.7911C18.8677 19.8561 19.2938 19.8325 19.7007 19.7217C20.1077 19.6109 20.4862 19.4156 20.8113 19.1486C21.1364 18.8816 21.4005 18.5491 21.5862 18.1731C21.7719 17.7972 21.8749 17.3863 21.8883 16.9678L21.9312 15.6171L21.9682 15.9106C22.0414 16.4977 21.9879 17.0936 21.8112 17.6586C21.6346 18.2237 21.3388 18.745 20.9436 19.188C20.5484 19.631 20.0628 19.9856 19.5189 20.2282C18.9751 20.4707 18.3855 20.5958 17.7892 20.595Z" fill="#3E6FEC"/>
<path d="M21.8485 14.9582C21.5364 12.4554 20.3136 10.152 18.4101 8.48084C16.5066 6.80969 14.0534 5.88593 11.5117 5.88322L4.17244 5.875L4.00921 10.9902C3.95168 12.7887 4.55818 14.5461 5.71472 15.9321C6.87126 17.318 8.49819 18.2372 10.2897 18.5167L18.4505 19.7906C18.8673 19.8556 19.2934 19.832 19.7003 19.7212C20.1073 19.6105 20.4859 19.4151 20.8109 19.1481C21.136 18.8812 21.4001 18.5487 21.5858 18.1727C21.7715 17.7967 21.8745 17.3858 21.8879 16.9674L21.9308 15.6166L21.8485 14.9582Z" fill="#4C2DEB"/>
<path d="M14.498 16.9608C16.806 16.9608 18.677 15.1044 18.677 12.8144C18.677 10.5244 16.806 8.66797 14.498 8.66797C12.1899 8.66797 10.3189 10.5244 10.3189 12.8144C10.3189 15.1044 12.1899 16.9608 14.498 16.9608Z" fill="white"/>
<path d="M13.8503 11.3942C13.8503 11.595 13.7903 11.7912 13.6779 11.9582C13.5654 12.1251 13.4056 12.2553 13.2187 12.3321C13.0317 12.4089 12.826 12.429 12.6275 12.3899C12.429 12.3507 12.2467 12.254 12.1036 12.112C11.9605 11.9701 11.863 11.7892 11.8236 11.5922C11.7841 11.3953 11.8043 11.1912 11.8818 11.0057C11.9592 10.8202 12.0904 10.6616 12.2586 10.5501C12.4269 10.4385 12.6247 10.379 12.8271 10.379C12.9619 10.3775 13.0956 10.4028 13.2203 10.4533C13.3451 10.5039 13.4585 10.5786 13.5538 10.6731C13.6491 10.7677 13.7244 10.8802 13.7753 11.004C13.8262 11.1278 13.8517 11.2605 13.8503 11.3942Z" fill="#4C2DEB"/>
</svg>
