<svg width="24" height="24" viewBox="0 0 24 24" fill="none" xmlns="http://www.w3.org/2000/svg">
<path d="M21 3.65099V10.8658C21 11.2232 20.7136 11.5138 20.3585 11.5166L11.8969 11.5842C11.5378 11.5871 11.2452 11.2948 11.2452 10.9334V4.86771C11.2452 4.5438 11.4818 4.2692 11.8004 4.22339L20.262 3.00667C20.6515 2.95063 21 3.25489 21 3.65099ZM10.3549 5.17612V10.9347C10.3549 11.2922 10.0685 11.5827 9.71338 11.5856L3.6518 11.634C3.29268 11.6369 3.00004 11.3446 3.00004 10.9831V6.04776C3.00004 5.72385 3.23666 5.44925 3.55523 5.40344L9.61681 4.53182C10.0063 4.47579 10.3549 4.78005 10.3549 5.17612ZM21 13.1728V20.349C21 20.7441 20.6532 21.048 20.2644 20.9937L11.8029 19.8108C11.4832 19.7661 11.2452 19.4909 11.2452 19.1661V13.139C11.2452 12.7785 11.5362 12.4867 11.8944 12.4881L20.356 12.5219C20.7121 12.5234 21 12.8144 21 13.1728ZM10.3162 13.0941V18.8343C10.3162 19.2277 9.97217 19.5312 9.58474 19.4796L3.56185 18.6777C3.2403 18.6349 3.00002 18.3589 3.00002 18.0324V13.062C3.00002 12.7012 3.2916 12.4092 3.65006 12.4111L9.67292 12.4432C10.0287 12.4451 10.3162 12.7359 10.3162 13.0941Z" fill="white"/>
</svg>
