<svg width="24" height="24" viewBox="0 0 24 24" fill="none" xmlns="http://www.w3.org/2000/svg">
<path d="M14.8436 5.40063C16.0327 3.98863 15.9249 2.70328 15.8897 2.24121C14.8389 2.30219 13.6239 2.9566 12.932 3.76111C12.1697 4.62426 11.7217 5.69148 11.8178 6.89473C12.9531 6.98151 13.9898 6.39748 14.8436 5.40063Z" fill="white"/>
<path d="M17.312 12.5575C17.3026 10.9579 18.0274 9.75228 19.491 8.86333C18.6724 7.69057 17.4339 7.04555 15.8015 6.92124C14.2558 6.79927 12.5646 7.82192 11.9454 7.82192C11.291 7.82192 9.79457 6.96346 8.61712 6.96346C6.18716 7.00098 3.60474 8.90086 3.60474 12.7663C3.60474 13.9086 3.81349 15.0884 4.23099 16.3033C4.78923 17.903 6.80168 21.8223 8.90093 21.759C9.99863 21.7332 10.775 20.9803 12.2034 20.9803C13.5896 20.9803 14.3074 21.759 15.5317 21.759C17.6497 21.7285 19.4699 18.1657 19.9999 16.5613C17.1595 15.222 17.312 12.6396 17.312 12.5575Z" fill="white"/>
</svg>
