<svg width="24" height="24" viewBox="0 0 24 24" fill="none" xmlns="http://www.w3.org/2000/svg">
<circle cx="12" cy="12" r="10" fill="#FFAA00"/>
<path fill-rule="evenodd" clip-rule="evenodd" d="M11.9997 7.55566C11.3962 7.55566 10.9167 8.06257 10.9502 8.66506L11.2178 13.4827C11.2409 13.8977 11.5841 14.2223 11.9997 14.2223C12.4152 14.2223 12.7584 13.8977 12.7815 13.4827L13.0491 8.66507C13.0826 8.06258 12.6031 7.55566 11.9997 7.55566Z" fill="white"/>
<path fill-rule="evenodd" clip-rule="evenodd" d="M11.2008 15.6505C10.9804 15.8559 10.8885 16.1173 10.8885 16.4348C10.8885 16.7522 10.9804 17.0137 11.2008 17.2378C11.4211 17.4432 11.6783 17.5552 11.9905 17.5552C12.3027 17.5552 12.5782 17.4432 12.7986 17.2378C13.0006 17.0324 13.1108 16.7709 13.1108 16.4348C13.1108 16.1173 13.0006 15.8559 12.7986 15.6505C12.5782 15.4264 12.3027 15.333 11.9905 15.333C11.6783 15.333 11.4211 15.4264 11.2008 15.6505Z" fill="white"/>
</svg>
