<svg width="24" height="24" viewBox="0 0 24 24" fill="none" xmlns="http://www.w3.org/2000/svg">
<ellipse cx="11.9998" cy="11.9998" rx="10.6229" ry="10.6229" fill="url(#paint0_linear_576:44040)"/>
<path d="M7.25925 3.78957C10.1926 2.09601 13.8066 2.09601 16.7399 3.78957C19.6733 5.48313 21.4803 8.61296 21.4803 12.0001C21.4803 15.3872 19.6733 18.517 16.7399 20.2106C13.8066 21.9041 10.1926 21.9041 7.25925 20.2106C4.32592 18.517 2.51891 15.3872 2.51891 12.0001C2.51891 8.61296 4.32592 5.48313 7.25925 3.78957Z" fill="url(#paint1_linear_576:44040)"/>
<path d="M7.44166 4.10521C10.2622 2.47678 13.7372 2.47678 16.5577 4.10521C19.3782 5.73363 21.1157 8.74308 21.1157 11.9999C21.1157 15.2568 19.3782 18.2662 16.5577 19.8946C13.7372 21.5231 10.2622 21.5231 7.44166 19.8946C4.62115 18.2662 2.88364 15.2568 2.88364 11.9999C2.88364 8.74308 4.62115 5.73363 7.44166 4.10521Z" fill="url(#paint2_linear_576:44040)"/>
<g filter="url(#filter0_i_576:44040)">
<path d="M6.27493 7.88516L8.82078 9.58152L11.3581 6.03127C11.4142 5.95274 11.4882 5.88872 11.5741 5.84455C11.6599 5.80039 11.755 5.77734 11.8515 5.77734C11.9481 5.77734 12.0432 5.80039 12.129 5.84455C12.2148 5.88872 12.2889 5.95274 12.3449 6.03127L14.8823 9.58152L17.4281 7.88516C17.5245 7.82109 17.6372 7.78593 17.7529 7.78382C17.8686 7.78172 17.9825 7.81277 18.0811 7.8733C18.1797 7.93383 18.2589 8.02131 18.3094 8.1254C18.3599 8.22949 18.3795 8.34584 18.3659 8.46071L16.7774 16.9225C16.76 17.0699 16.6891 17.2058 16.5782 17.3044C15.3996 18.3519 13.3545 18.518 11.8515 18.518C10.3486 18.518 8.30353 18.3519 7.12491 17.3044C7.01397 17.2058 6.94308 17.0699 6.92571 16.9225L5.33722 8.46011C5.32376 8.34529 5.34345 8.22902 5.39396 8.12502C5.44448 8.02103 5.52371 7.93365 5.6223 7.8732C5.72089 7.81275 5.83472 7.78176 5.95036 7.78388C6.06601 7.786 6.17863 7.82114 6.27493 7.88516Z" fill="url(#paint3_linear_576:44040)"/>
</g>
<path d="M8.90866 11.1051C8.89491 11.1051 8.88591 11.1195 8.89196 11.1319L11.1991 15.8478C11.2022 15.8542 11.2087 15.8582 11.2158 15.8582H12.4877C12.4948 15.8582 12.5013 15.8542 12.5044 15.8478L14.8115 11.1319C14.8176 11.1195 14.8086 11.1051 14.7948 11.1051H13.663C13.6557 11.1051 13.6492 11.1093 13.6461 11.1159L11.8615 14.9694H11.842L10.0574 11.1159C10.0543 11.1093 10.0477 11.1051 10.0405 11.1051H8.90866Z" fill="url(#paint4_linear_576:44040)" stroke="url(#paint5_linear_576:44040)" stroke-width="0.0123961"/>
<path d="M6.80383 2.99999C10.0192 1.14359 13.9807 1.14359 17.1961 2.99999C20.4115 4.8564 22.3923 8.28717 22.3923 12C22.3923 15.7128 20.4115 19.1435 17.1961 21C13.9807 22.8564 10.0192 22.8564 6.80383 21C3.58845 19.1435 1.60769 15.7128 1.60769 12C1.60769 8.28717 3.58845 4.85639 6.80383 2.99999Z" fill="url(#paint6_linear_576:44040)"/>
<path d="M7.14463 3.59038C10.1492 1.85571 13.8509 1.85571 16.8555 3.59038C19.86 5.32505 21.7109 8.53086 21.7109 12.0002C21.7109 15.4695 19.86 18.6753 16.8555 20.41C13.8509 22.1447 10.1492 22.1447 7.14463 20.41C4.1401 18.6753 2.28923 15.4695 2.28923 12.0002C2.28923 8.53086 4.1401 5.32505 7.14463 3.59038Z" fill="url(#paint7_linear_576:44040)"/>
<path d="M7.22975 3.73749C10.1816 2.03325 13.8184 2.03325 16.7702 3.73749C19.722 5.44173 21.5404 8.59129 21.5404 11.9998C21.5404 15.4082 19.722 18.5578 16.7702 20.262C13.8184 21.9663 10.1816 21.9663 7.22975 20.262C4.27793 18.5578 2.45953 15.4082 2.45953 11.9998C2.45953 8.59129 4.27793 5.44173 7.22975 3.73749Z" fill="url(#paint8_linear_576:44040)"/>
<path d="M7.57034 4.32788C10.3113 2.74537 13.6884 2.74537 16.4293 4.32788C19.1703 5.91039 20.8588 8.83498 20.8588 12C20.8588 15.165 19.1703 18.0896 16.4293 19.6721C13.6884 21.2546 10.3113 21.2546 7.57034 19.6721C4.82936 18.0896 3.14085 15.165 3.14085 12C3.14085 8.83498 4.82936 5.91039 7.57034 4.32788Z" fill="url(#paint9_linear_576:44040)"/>
<path d="M7.74073 4.62307C10.3763 3.10143 13.6234 3.10143 16.259 4.62307C18.8946 6.14471 20.5181 8.95682 20.5181 12.0001C20.5181 15.0434 18.8946 17.8555 16.259 19.3771C13.6234 20.8988 10.3763 20.8988 7.74073 19.3771C5.10517 17.8555 3.4816 15.0434 3.4816 12.0001C3.4816 8.95682 5.10517 6.14471 7.74073 4.62307Z" fill="url(#paint10_linear_576:44040)"/>
<g filter="url(#filter1_ddii_576:44040)">
<path fill-rule="evenodd" clip-rule="evenodd" d="M8.97974 16.6533C8.97969 16.6533 8.97964 16.6533 8.97959 16.6533C7.17622 16.6533 5.71429 15.1914 5.71429 13.388C5.71429 11.8432 6.78702 10.549 8.2282 10.2096C8.57209 8.30344 10.2396 6.85742 12.2448 6.85742C14.25 6.85742 15.9175 8.30339 16.2614 10.2095C17.7028 10.5488 18.7757 11.8431 18.7757 13.388C18.7757 15.1914 17.3137 16.6533 15.5104 16.6533C15.5104 16.6533 15.5103 16.6533 15.5103 16.6533V16.6533H8.97974Z" fill="url(#paint11_linear_576:44040)"/>
</g>
<path d="M10.9262 11.1356C10.676 11.1356 10.5103 11.3953 10.6157 11.6222L11.7258 14.0107C11.8103 14.1925 11.9926 14.3088 12.1931 14.3088H12.3641C12.5646 14.3088 12.7469 14.1925 12.8314 14.0107L13.9415 11.6222C14.0469 11.3953 13.8813 11.1356 13.631 11.1356C13.4953 11.1356 13.3723 11.2158 13.3177 11.34L12.2789 13.701L12.2786 13.7012L12.2783 13.701L11.2395 11.34C11.1849 11.2158 11.0619 11.1356 10.9262 11.1356Z" fill="url(#paint12_linear_576:44040)" stroke="url(#paint13_linear_576:44040)" stroke-width="0.0257461"/>
<defs>
<filter id="filter0_i_576:44040" x="5.3331" y="5.77734" width="13.037" height="12.8179" filterUnits="userSpaceOnUse" color-interpolation-filters="sRGB">
<feFlood flood-opacity="0" result="BackgroundImageFix"/>
<feBlend mode="normal" in="SourceGraphic" in2="BackgroundImageFix" result="shape"/>
<feColorMatrix in="SourceAlpha" type="matrix" values="0 0 0 0 0 0 0 0 0 0 0 0 0 0 0 0 0 0 127 0" result="hardAlpha"/>
<feOffset dy="0.0777107"/>
<feGaussianBlur stdDeviation="0.310843"/>
<feComposite in2="hardAlpha" operator="arithmetic" k2="-1" k3="1"/>
<feColorMatrix type="matrix" values="0 0 0 0 1 0 0 0 0 1 0 0 0 0 1 0 0 0 0.7 0"/>
<feBlend mode="normal" in2="shape" result="effect1_innerShadow_576:44040"/>
</filter>
<filter id="filter1_ddii_576:44040" x="2.55603" y="3.69916" width="19.3779" height="16.1124" filterUnits="userSpaceOnUse" color-interpolation-filters="sRGB">
<feFlood flood-opacity="0" result="BackgroundImageFix"/>
<feColorMatrix in="SourceAlpha" type="matrix" values="0 0 0 0 0 0 0 0 0 0 0 0 0 0 0 0 0 0 127 0" result="hardAlpha"/>
<feOffset/>
<feGaussianBlur stdDeviation="0.263189"/>
<feComposite in2="hardAlpha" operator="out"/>
<feColorMatrix type="matrix" values="0 0 0 0 0 0 0 0 0 0.278431 0 0 0 0 1 0 0 0 0.25 0"/>
<feBlend mode="normal" in2="BackgroundImageFix" result="effect1_dropShadow_576:44040"/>
<feColorMatrix in="SourceAlpha" type="matrix" values="0 0 0 0 0 0 0 0 0 0 0 0 0 0 0 0 0 0 127 0" result="hardAlpha"/>
<feOffset/>
<feGaussianBlur stdDeviation="1.57913"/>
<feComposite in2="hardAlpha" operator="out"/>
<feColorMatrix type="matrix" values="0 0 0 0 0.309804 0 0 0 0 0.545098 0 0 0 0 1 0 0 0 1 0"/>
<feBlend mode="normal" in2="effect1_dropShadow_576:44040" result="effect2_dropShadow_576:44040"/>
<feBlend mode="normal" in="SourceGraphic" in2="effect2_dropShadow_576:44040" result="shape"/>
<feColorMatrix in="SourceAlpha" type="matrix" values="0 0 0 0 0 0 0 0 0 0 0 0 0 0 0 0 0 0 127 0" result="hardAlpha"/>
<feOffset/>
<feGaussianBlur stdDeviation="3.15827"/>
<feComposite in2="hardAlpha" operator="arithmetic" k2="-1" k3="1"/>
<feColorMatrix type="matrix" values="0 0 0 0 1 0 0 0 0 1 0 0 0 0 1 0 0 0 1 0"/>
<feBlend mode="normal" in2="shape" result="effect3_innerShadow_576:44040"/>
<feColorMatrix in="SourceAlpha" type="matrix" values="0 0 0 0 0 0 0 0 0 0 0 0 0 0 0 0 0 0 127 0" result="hardAlpha"/>
<feOffset/>
<feGaussianBlur stdDeviation="1.57913"/>
<feComposite in2="hardAlpha" operator="arithmetic" k2="-1" k3="1"/>
<feColorMatrix type="matrix" values="0 0 0 0 1 0 0 0 0 1 0 0 0 0 1 0 0 0 1 0"/>
<feBlend mode="normal" in2="effect3_innerShadow_576:44040" result="effect4_innerShadow_576:44040"/>
</filter>
<linearGradient id="paint0_linear_576:44040" x1="16.426" y1="2.26219" x2="11.9998" y2="22.6227" gradientUnits="userSpaceOnUse">
<stop stop-color="#5490FF"/>
<stop offset="1" stop-color="#699DFF"/>
</linearGradient>
<linearGradient id="paint1_linear_576:44040" x1="11.9996" y1="0.201274" x2="9.0803" y2="22.9474" gradientUnits="userSpaceOnUse">
<stop offset="0.185597" stop-color="#FFD952"/>
<stop offset="1" stop-color="#FFCA41"/>
</linearGradient>
<linearGradient id="paint2_linear_576:44040" x1="9.23691" y1="-1.94735" x2="14.2369" y2="23.7105" gradientUnits="userSpaceOnUse">
<stop offset="0.194058" stop-color="#FFF8D3"/>
<stop offset="0.635563" stop-color="#FFD74B" stop-opacity="0.26"/>
<stop offset="0.881433" stop-color="#FFE68E" stop-opacity="0.84"/>
</linearGradient>
<linearGradient id="paint3_linear_576:44040" x1="6.37905" y1="4.64441" x2="14.2658" y2="22.0167" gradientUnits="userSpaceOnUse">
<stop stop-color="#FFFCF2"/>
<stop offset="0.0001" stop-color="#FFF9E2"/>
<stop offset="0.207855" stop-color="#FFFAE4"/>
<stop offset="0.692186" stop-color="#FFF4C5"/>
</linearGradient>
<linearGradient id="paint4_linear_576:44040" x1="11.6542" y1="15.5887" x2="11.6542" y2="9.20694" gradientUnits="userSpaceOnUse">
<stop stop-color="#FEC601"/>
<stop offset="1" stop-color="#FED601"/>
</linearGradient>
<linearGradient id="paint5_linear_576:44040" x1="12.0493" y1="15.771" x2="11.7124" y2="10.844" gradientUnits="userSpaceOnUse">
<stop stop-color="#FEC601"/>
<stop offset="1" stop-color="#FED601"/>
</linearGradient>
<linearGradient id="paint6_linear_576:44040" x1="12" y1="0" x2="12" y2="23.9999" gradientUnits="userSpaceOnUse">
<stop stop-color="#87B2FF"/>
<stop offset="1" stop-color="#83AFFF"/>
</linearGradient>
<linearGradient id="paint7_linear_576:44040" x1="8.22641" y1="2.72784" x2="11.461" y2="23.2133" gradientUnits="userSpaceOnUse">
<stop stop-color="white" stop-opacity="0.83"/>
<stop offset="1" stop-color="white" stop-opacity="0.23"/>
</linearGradient>
<linearGradient id="paint8_linear_576:44040" x1="9.30606" y1="20.5712" x2="9.30606" y2="0.979393" gradientUnits="userSpaceOnUse">
<stop stop-color="#C9DCFF"/>
<stop offset="0.950633" stop-color="#B5CFFF"/>
</linearGradient>
<linearGradient id="paint9_linear_576:44040" x1="11.9998" y1="0.974881" x2="9.27198" y2="22.2295" gradientUnits="userSpaceOnUse">
<stop offset="0.185597" stop-color="#5690FF"/>
<stop offset="1" stop-color="#7DAAFF"/>
</linearGradient>
<linearGradient id="paint10_linear_576:44040" x1="9.41826" y1="-1.03259" x2="14.0904" y2="22.9428" gradientUnits="userSpaceOnUse">
<stop offset="0.194058" stop-color="#D3DFFF"/>
<stop offset="0.635563" stop-color="#4B68FF" stop-opacity="0.26"/>
<stop offset="0.881433" stop-color="#8EB4FF" stop-opacity="0.84"/>
</linearGradient>
<linearGradient id="paint11_linear_576:44040" x1="12.245" y1="6.85742" x2="12.245" y2="16.6533" gradientUnits="userSpaceOnUse">
<stop stop-color="#E4EDFF"/>
<stop offset="1" stop-color="#C5D9FF"/>
</linearGradient>
<linearGradient id="paint12_linear_576:44040" x1="12.5197" y1="14.4126" x2="12.5197" y2="10.1756" gradientUnits="userSpaceOnUse">
<stop stop-color="#5490FF"/>
<stop offset="0.0001" stop-color="#5E96FF"/>
<stop offset="1" stop-color="#4E8BFE"/>
<stop offset="1" stop-color="#3D80FF"/>
</linearGradient>
<linearGradient id="paint13_linear_576:44040" x1="12.7689" y1="14.5337" x2="12.5336" y2="11.2641" gradientUnits="userSpaceOnUse">
<stop stop-color="#5D96FF"/>
<stop offset="1" stop-color="#3D80FF"/>
</linearGradient>
</defs>
</svg>
