<svg width="24" height="24" viewBox="0 0 24 24" fill="none" xmlns="http://www.w3.org/2000/svg">
<path fill-rule="evenodd" clip-rule="evenodd" d="M12 21C16.9706 21 21 16.9706 21 12C21 7.02944 16.9706 3 12 3C7.02944 3 3 7.02944 3 12C3 16.9706 7.02944 21 12 21ZM12 22C17.5228 22 22 17.5228 22 12C22 6.47715 17.5228 2 12 2C6.47715 2 2 6.47715 2 12C2 17.5228 6.47715 22 12 22ZM12 7.5C12.2761 7.5 12.5 7.72386 12.5 8V15.7929L16.6464 11.6464C16.8417 11.4512 17.1583 11.4512 17.3536 11.6464C17.5488 11.8417 17.5488 12.1583 17.3536 12.3536L12.502 17.2051C12.2248 17.4823 11.7752 17.4823 11.498 17.2051L6.64645 12.3536C6.45118 12.1583 6.45118 11.8417 6.64645 11.6464C6.84171 11.4512 7.15829 11.4512 7.35355 11.6464L11.5 15.7929V8C11.5 7.72386 11.7239 7.5 12 7.5Z" fill="black" fill-opacity="0.8"/>
</svg>
