<svg width="17" height="20" viewBox="0 0 17 20" fill="none" xmlns="http://www.w3.org/2000/svg">
<path d="M11.8436 3.40063C13.0327 1.98863 12.9249 0.703279 12.8897 0.241211C11.8389 0.302195 10.6239 0.956596 9.93196 1.76111C9.16967 2.62426 8.72167 3.69148 8.81784 4.89473C9.95307 4.98151 10.9898 4.39748 11.8436 3.40063Z" fill="white"/>
<path d="M14.312 10.5575C14.3026 8.95788 15.0274 7.75228 16.491 6.86333C15.6724 5.69057 14.4339 5.04555 12.8015 4.92124C11.2558 4.79927 9.56464 5.82192 8.94542 5.82192C8.29102 5.82192 6.79457 4.96346 5.61712 4.96346C3.18716 5.00098 0.604736 6.90086 0.604736 10.7663C0.604736 11.9086 0.813488 13.0884 1.23099 14.3033C1.78923 15.903 3.80168 19.8223 5.90093 19.759C6.99863 19.7332 7.775 18.9803 9.20343 18.9803C10.5896 18.9803 11.3074 19.759 12.5317 19.759C14.6497 19.7285 16.4699 16.1657 16.9999 14.5613C14.1595 13.222 14.312 10.6396 14.312 10.5575Z" fill="white"/>
</svg>
