<svg width="38" height="38" viewBox="0 0 38 38" fill="none" xmlns="http://www.w3.org/2000/svg">
<g clip-path="url(#clip0_384:43941)">
<path d="M33.5186 5.66796V17.2918C33.5186 17.8677 33.0571 18.3358 32.485 18.3404L18.8525 18.4493C18.2739 18.4539 17.8024 17.9831 17.8024 17.4007V7.62823C17.8024 7.10638 18.1837 6.66396 18.6969 6.59016L32.3294 4.62988C32.9571 4.5396 33.5186 5.0298 33.5186 5.66796ZM16.368 8.12512V17.4028C16.368 17.9787 15.9066 18.4469 15.3345 18.4514L5.56865 18.5295C4.99006 18.5341 4.51859 18.0632 4.51859 17.4809V9.52942C4.51859 9.00757 4.89982 8.56515 5.41306 8.49135L15.1789 7.08708C15.8065 6.9968 16.368 7.487 16.368 8.12512ZM33.5186 21.0087V32.5703C33.5186 33.2068 32.9598 33.6965 32.3335 33.609L18.7009 31.7031C18.1859 31.6311 17.8024 31.1879 17.8024 30.6645V20.9542C17.8024 20.3734 18.2714 19.9033 18.8483 19.9056L32.4809 19.96C33.0547 19.9624 33.5186 20.4312 33.5186 21.0087ZM16.3057 20.8818V30.13C16.3057 30.7638 15.7515 31.2527 15.1273 31.1696L5.42374 29.8776C4.90568 29.8086 4.51855 29.364 4.51855 28.838V20.8301C4.51855 20.2488 4.98834 19.7784 5.56585 19.7815L15.2693 19.8332C15.8426 19.8362 16.3057 20.3048 16.3057 20.8818Z" fill="white"/>
</g>
<defs>
<clipPath id="clip0_384:43941">
<rect width="38" height="38" fill="white"/>
</clipPath>
</defs>
</svg>
