<svg width="133" height="149" viewBox="0 0 133 149" fill="none" xmlns="http://www.w3.org/2000/svg">
<path d="M115.244 74.8221L115.122 78.6908L114.717 75.4258C111.541 49.7634 89.752 30.4873 63.898 30.4585L27.8154 30.4178L27.9448 26.3671C28.0981 21.5738 32.4171 17.9998 37.1577 18.7424L73.5612 24.4699C98.1696 28.3386 116.037 49.9263 115.244 74.8221Z" fill="url(#paint0_linear_393:45898)"/>
<path d="M94.7588 103.355L58.8128 103.319C39.6612 103.295 23.5231 89.0138 21.1732 70.0108L17.1848 37.8328C16.6913 33.8899 19.7743 30.4069 23.7483 30.4141L27.8158 30.4189L27.0133 55.7651C26.4264 74.2004 39.666 90.1948 57.8906 93.0597L98.0095 99.3717C106.705 100.737 114.629 94.1784 114.909 85.3823L115.12 78.6894L115.302 80.1435C116.828 92.4848 107.194 103.374 94.7588 103.355Z" fill="url(#paint1_linear_393:45898)"/>
<path d="M114.717 75.426C111.541 49.7636 89.752 30.4874 63.8979 30.4587L27.8154 30.418L27.0129 55.7642C26.426 74.1995 39.6656 90.1939 57.8902 93.0588L98.0091 99.3708C106.705 100.736 114.629 94.1775 114.909 85.3814L115.12 78.6886L114.717 75.426Z" fill="url(#paint2_linear_393:45898)"/>
<path d="M78.5779 85.3453C89.925 85.3453 99.1237 76.1467 99.1237 64.7996C99.1237 53.4525 89.925 44.2539 78.5779 44.2539C67.2309 44.2539 58.0322 53.4525 58.0322 64.7996C58.0322 76.1467 67.2309 85.3453 78.5779 85.3453Z" fill="white"/>
<path d="M75.3961 57.7674C75.3961 57.9973 75.3793 58.2249 75.3482 58.4501C75.0152 60.9006 72.9168 62.7906 70.3729 62.7906C67.5989 62.7906 65.3496 60.5437 65.3496 57.7674C65.3496 54.9935 67.5965 52.7441 70.3729 52.7441C73.1468 52.7441 75.3961 54.9935 75.3961 57.7674Z" fill="#4C2DEB"/>
<g clip-path="url(#clip0_393:45898)">
<path d="M46.968 132.484L44.4241 135.009L42.9495 136.472L35.1562 144.207L39.2642 148.287L47.06 140.55L48.5346 139.086L51.0785 136.561L46.968 132.484ZM54.7637 124.746L49.022 130.445L53.1325 134.522L58.8742 128.823L54.7637 124.746Z" fill="black"/>
<path d="M51.0796 136.56L46.9691 132.482L39.2231 124.792L39.2206 124.789L35.2021 128.778L42.9506 136.471L47.0611 140.548L54.8096 148.241L58.8281 144.253L51.0796 136.56Z" fill="black"/>
<path d="M51.0781 136.561L46.9676 132.484L39.2216 124.793L36.6777 127.318L44.4237 135.009L48.5342 139.086L56.2827 146.779L58.8266 144.254L51.0781 136.561Z" fill="black"/>
<path d="M26.2383 148.342V124.744H31.6418V148.342H26.2383Z" fill="black"/>
<path d="M78.9915 133.13C78.3275 131.901 77.4821 130.978 76.4526 130.363C75.4231 129.749 74.2021 129.44 72.7897 129.44C70.9172 129.44 69.3506 130.112 68.0899 131.457C66.8291 132.802 66.2 134.49 66.2 136.519C66.2 138.521 66.8441 140.187 68.1346 141.517C69.4252 142.847 71.0416 143.511 72.9862 143.511C74.4856 143.511 75.7314 143.193 76.7261 142.556C77.7208 141.919 78.4618 140.967 78.9517 139.693H84.8526C84.1315 142.583 82.7265 144.849 80.6377 146.493C78.5489 148.137 76.0124 148.961 73.0309 148.961C71.2728 148.961 69.6441 148.65 68.1471 148.028C66.6476 147.406 65.2949 146.488 64.0838 145.271C62.9599 144.128 62.0821 142.786 61.448 141.248C60.8139 139.71 60.498 138.148 60.498 136.561C60.498 134.902 60.7865 133.35 61.3634 131.906C61.9403 130.462 62.7908 129.161 63.9147 128.001C65.1531 126.701 66.5506 125.713 68.1073 125.042C69.664 124.371 71.335 124.035 73.1204 124.035C76.0298 124.035 78.5513 124.857 80.6849 126.503C82.816 128.147 84.221 130.359 84.8998 133.133H78.9915V133.13Z" fill="black"/>
<path d="M107.022 148.342V145.447C106.358 146.619 105.426 147.486 104.222 148.044C103.019 148.601 101.482 148.88 99.607 148.88C96.0909 148.88 93.1566 147.691 90.7992 145.309C88.4443 142.927 87.2656 139.97 87.2656 136.438C87.2656 134.78 87.5615 133.208 88.1509 131.719C88.7427 130.231 89.5832 128.923 90.6798 127.792C91.861 126.548 93.1715 125.63 94.6138 125.036C96.0536 124.443 97.6749 124.145 99.4777 124.145C101.206 124.145 102.695 124.431 103.941 125.003C105.187 125.576 106.192 126.44 106.955 127.6V124.744H112.359V148.342H107.022ZM92.9303 136.349C92.9303 138.336 93.5967 140 94.9296 141.338C96.2624 142.675 97.8862 143.344 99.8035 143.344C101.547 143.344 103.081 142.673 104.406 141.328C105.732 139.983 106.396 138.41 106.396 136.609C106.396 134.693 105.729 133.045 104.396 131.665C103.064 130.285 101.504 129.594 99.7164 129.594C97.844 129.594 96.245 130.248 94.9196 131.556C93.5942 132.864 92.9303 134.461 92.9303 136.349Z" fill="black"/>
<path d="M116.997 148.342V117.107H122.898V148.342H116.997Z" fill="black"/>
<path d="M127.099 148.342V117.107H132.999V148.342H127.099Z" fill="black"/>
<path d="M22.2881 123.652C21.741 122.349 20.9602 121.228 19.9432 120.29C18.9236 119.352 17.6853 118.627 16.2231 118.116C14.7634 117.602 13.1048 117.346 11.2448 117.346H0V148.099H5.40107V138.873H10.5808C12.3215 138.873 13.9528 138.646 15.4721 138.192C16.9915 137.737 18.3194 137.059 19.4558 136.15C20.5922 135.242 21.4849 134.114 22.1339 132.767C22.783 131.419 23.1062 129.852 23.1062 128.065V127.978C23.1062 126.396 22.8352 124.955 22.2881 123.652ZM17.4192 128.23C17.4192 129.731 16.8945 130.992 15.8426 132.009C14.7933 133.028 13.3137 133.537 11.4114 133.537H5.40107V122.82H11.2622C13.167 122.82 14.6689 123.272 15.7705 124.173C16.8696 125.073 17.4192 126.394 17.4192 128.129V128.23Z" fill="black"/>
</g>
<defs>
<linearGradient id="paint0_linear_393:45898" x1="116.739" y1="76.6947" x2="37.2715" y2="12.2828" gradientUnits="userSpaceOnUse">
<stop stop-color="#F88AA8"/>
<stop offset="1" stop-color="#F86DB8"/>
</linearGradient>
<linearGradient id="paint1_linear_393:45898" x1="96.7156" y1="104.342" x2="17.6627" y2="40.2664" gradientUnits="userSpaceOnUse">
<stop stop-color="#3183FF"/>
<stop offset="1" stop-color="#3E6FEC"/>
</linearGradient>
<linearGradient id="paint2_linear_393:45898" x1="34.0234" y1="40.0679" x2="109.258" y2="91.6556" gradientUnits="userSpaceOnUse">
<stop offset="0.0521" stop-color="#4E30EC"/>
<stop offset="1" stop-color="#6E5CFE"/>
</linearGradient>
<clipPath id="clip0_393:45898">
<rect width="133" height="31.8563" fill="white" transform="translate(0 117.107)"/>
</clipPath>
</defs>
</svg>
