<svg width="1024" height="1024" viewBox="0 0 1024 1024" fill="none" xmlns="http://www.w3.org/2000/svg">
  <path d="m915.644 624.41-1.02 32.28-3.38-27.24a428.001 428.001 0 0 0-424.3-375.44l-301.26-.34 1.08-33.8a66.604 66.604 0 0 1 48.954-62.099 66.597 66.597 0 0 1 27.966-1.561l304 47.8a412.24 412.24 0 0 1 347.96 420.4Z" fill="#F86DB8"/>
  <path d="m744.621 862.611-300.14-.28a317.041 317.041 0 0 1-314.26-278.121l-33.28-268.66a55.139 55.139 0 0 1 54.8-62h34l-6.74 211.72a305.404 305.404 0 0 0 257.8 311.381l334.98 52.7a122.172 122.172 0 0 0 96.891-26.579 122.187 122.187 0 0 0 44.209-90.221l1.76-55.88 1.52 12.14a172.621 172.621 0 0 1-171.54 193.8Z" fill="#3E6FEC"/>
  <path d="M911.273 629.43a427.998 427.998 0 0 0-424.3-375.44l-301.26-.34-6.7 211.62a305.4 305.4 0 0 0 257.8 311.381l334.98 52.699a122.18 122.18 0 0 0 141.1-116.799l1.76-55.881-3.38-27.24Z" fill="#4C2DEB"/>
  <path d="M609.524 712.255c94.739 0 171.54-76.801 171.54-171.54 0-94.739-76.801-171.54-171.54-171.54-94.739 0-171.54 76.801-171.54 171.54 0 94.739 76.801 171.54 171.54 171.54Z" fill="#fff"/>
  <path d="M582.956 482.002a42 42 0 1 1-42-42 41.571 41.571 0 0 1 29.83 12.171 41.551 41.551 0 0 1 12.17 29.829Z" fill="#4C2DEB"/>
</svg>
