<svg width="24" height="24" viewBox="0 0 24 24" fill="none" xmlns="http://www.w3.org/2000/svg">
<path d="M14.3946 12.5C14.3946 11.9077 14.151 11.3397 13.7175 10.9209C13.2839 10.5021 12.6958 10.2669 12.0826 10.2669C11.4694 10.2669 10.8813 10.5021 10.4477 10.9209C10.0141 11.3397 9.77052 11.9077 9.77052 12.5C9.77052 13.0923 10.0141 13.6603 10.4477 14.0791C10.8813 14.4979 11.4694 14.7331 12.0826 14.7331C12.6958 14.7331 13.2839 14.4979 13.7175 14.0791C14.151 13.6603 14.3946 13.0923 14.3946 12.5ZM3.11922 13.0144C5.07621 16.9962 8.03441 19 12 19C15.9677 19 18.9238 16.9962 20.8808 13.0124C20.9593 12.8519 21 12.6765 21 12.499C21 12.3215 20.9593 12.1461 20.8808 11.9856C18.9238 8.00383 15.9656 6 12 6C8.03234 6 5.07621 8.00383 3.11922 11.9876C2.96026 12.3106 2.96026 12.6854 3.11922 13.0144ZM12.0826 8.9908C14.0891 8.9908 15.7158 10.562 15.7158 12.5C15.7158 14.438 14.0891 16.0092 12.0826 16.0092C10.076 16.0092 8.44934 14.438 8.44934 12.5C8.44934 10.562 10.076 8.9908 12.0826 8.9908Z" fill="black" fill-opacity="0.45"/>
</svg>
