<svg width="32" height="32" viewBox="0 0 32 32" fill="none" xmlns="http://www.w3.org/2000/svg">
<path d="M23.4021 9.45304C23.6828 9.17015 24.0626 9.00774 24.461 9.00027C24.8594 8.9928 25.2451 9.14086 25.5361 9.41304C25.7957 9.6555 25.9578 9.98436 25.992 10.3379C26.0263 10.6914 25.9303 11.0453 25.7221 11.333L25.5781 11.503L14.7481 22.545C14.487 22.8086 14.1392 22.9684 13.7692 22.9949C13.3992 23.0214 13.0321 22.9127 12.7361 22.689L12.5641 22.537L6.41413 16.185C6.27831 16.0453 6.17184 15.8799 6.10097 15.6984C6.0301 15.5169 5.99628 15.323 6.0015 15.1282C6.00672 14.9335 6.05087 14.7417 6.13136 14.5643C6.21184 14.3868 6.32703 14.2273 6.47013 14.095C6.73462 13.8496 7.07724 13.7054 7.43763 13.6879C7.79801 13.6703 8.15303 13.7805 8.44013 13.999L8.60613 14.147L13.6701 19.373L23.4001 9.45304H23.4021Z" fill="#3396FF"/>
</svg>
