<svg width="80" height="32" viewBox="0 0 80 32" fill="none" xmlns="http://www.w3.org/2000/svg">
  <g opacity="1" fill="#000">
    <path d="m28.7795 15.6885-1.3962 1.4266-.8094.827-4.2775 4.3707 2.2547 2.3052 4.2789-4.372.8094-.827 1.3962-1.4267-2.2561-2.3038Zm4.2789-4.3721-3.1515 3.2201 2.2561 2.3039 3.1515-3.2201-2.2561-2.3039Z"/>
    <path d="m31.0355 17.9926-2.2561-2.3039-4.2516-4.3455-.0014-.0014-2.2056 2.2537 4.2529 4.3469 2.2562 2.3039 4.2529 4.3469 2.2056-2.2537-4.2529-4.3469Z"/>
    <path d="m31.0358 17.9932-2.2561-2.3039-4.2516-4.3455-1.3963 1.4266 4.2516 4.3456 2.2561 2.3038 4.253 4.347 1.3962-1.4267-4.2529-4.3469ZM17.4009 24.6481V11.3145h2.9658v13.3336h-2.9658ZM46.3566 16.0531c-.3644-.6945-.8285-1.216-1.3936-1.5633-.565-.3473-1.2352-.5216-2.0104-.5216-1.0277 0-1.8876.3793-2.5796 1.1394-.692.7601-1.0373 1.714-1.0373 2.8603 0 1.131.3535 2.0724 1.0619 2.8241.7083.7516 1.5955 1.1268 2.6628 1.1268.823 0 1.5068-.1799 2.0528-.5397.5459-.3598.9527-.8981 1.2215-1.6177h3.2389c-.3958 1.633-1.167 2.9133-2.3135 3.8421-1.1465.9288-2.5386 1.3946-4.1751 1.3946-.965 0-1.859-.1758-2.6806-.5272-.823-.3514-1.5655-.8702-2.2302-1.5578-.6169-.6457-1.0987-1.4043-1.4468-2.2731-.348-.8689-.5213-1.7517-.5213-2.6484 0-.9371.1583-1.8143.4749-2.6302.3167-.8158.7835-1.5508 1.4004-2.2062.6797-.735 1.4467-1.2928 2.3012-1.6721.8544-.3794 1.7715-.569 2.7515-.569 1.5969 0 2.9809.4644 4.152 1.3946 1.1696.9288 1.9408 2.1783 2.3134 3.7458h-3.2429v-.0014ZM61.7413 24.6491v-1.6358c-.3644.6624-.8762 1.1519-1.5368 1.4671-.6606.3152-1.5041.4728-2.5332.4728-1.9299 0-3.5405-.6722-4.8344-2.018-1.2925-1.3458-1.9394-3.0165-1.9394-5.0122 0-.9371.1624-1.8255.4859-2.6664.3248-.841.7861-1.5801 1.388-2.2188.6483-.7029 1.3676-1.2217 2.1593-1.5578.7902-.3347 1.6801-.5034 2.6696-.5034.9486 0 1.7662.1617 2.45.4853.6838.3235 1.2352.8116 1.6542 1.4671v-1.6136h2.9659v13.3337h-2.9291Zm-7.7347-6.7763c0 1.1227.3658 2.0626 1.0974 2.8185.7316.7559 1.6228 1.1338 2.6751 1.1338.9568 0 1.7989-.3793 2.5264-1.1394.7275-.76 1.0919-1.6484 1.0919-2.6664 0-1.0823-.3658-2.0138-1.0974-2.7934-.7315-.7796-1.5873-1.1701-2.5686-1.1701-1.0278 0-1.9054.3696-2.6329 1.1087-.7274.7392-1.0919 1.6415-1.0919 2.7083ZM67.2158 24.6486V7h3.2389v17.6486h-3.2389ZM72.7612 24.6486V7h3.2389v17.6486h-3.2389ZM15.2333 10.6979c-.3003-.7363-.7288-1.36944-1.2871-1.89939-.5595-.52994-1.2393-.93995-2.0418-1.22863-.8012-.29008-1.7115-.43511-2.73246-.43511H3V24.5114h2.96449v-5.213h2.84303c.9554 0 1.85078-.1283 2.68468-.3849.8339-.2566 1.5628-.6401 2.1865-1.1533.6238-.5132 1.1138-1.1506 1.47-1.912.3562-.7615.5337-1.647.5337-2.6567v-.0488c0-.894-.1488-1.7084-.4491-2.4448Zm-2.6724 2.587c0 .8479-.288 1.5606-.8653 2.1351-.576.576-1.3881.8633-2.43222.8633H5.96449V10.228h3.217c1.04551 0 1.86991.2552 2.47451.7642.6033.509.9049 1.2551.9049 2.2355v.0572Z"/>
  </g>
</svg>
