<svg width="136" height="48" viewBox="0 0 136 48" fill="none" xmlns="http://www.w3.org/2000/svg">
<g clip-path="url(#clip0_361:39956)">
<path fill-rule="evenodd" clip-rule="evenodd" d="M84.3663 30.3848L84.3667 30.3852L82.1196 32.8453L77.7867 28.1003L77.7863 28.0998L73.427 32.8722L71.1299 30.3559L75.4878 25.585L71.1553 20.8404L73.4024 18.3804L73.4034 18.3815L73.4035 18.3813L77.735 23.1248L80.0335 25.6397L84.3664 30.3847L84.3663 30.3848ZM82.0942 18.3525L78.8835 21.8675L81.182 24.3824L84.3928 20.8674L82.0942 18.3525Z" fill="white" fill-opacity="0.8"/>
<path d="M66.1421 32.9053V18.3506H69.1637V32.9053H66.1421Z" fill="white" fill-opacity="0.8"/>
<path d="M95.6426 23.5237C95.2714 22.7656 94.7986 22.1963 94.2229 21.8172C93.6472 21.4382 92.9645 21.2479 92.1747 21.2479C91.1276 21.2479 90.2516 21.662 89.5466 22.4916C88.8416 23.3213 88.4898 24.3625 88.4898 25.6139C88.4898 26.8484 88.8499 27.876 89.5716 28.6965C90.2933 29.517 91.1971 29.9265 92.2845 29.9265C93.123 29.9265 93.8197 29.7302 94.3759 29.3374C94.9321 28.9446 95.3465 28.357 95.6204 27.5715H98.9201C98.5169 29.3541 97.7312 30.7516 96.5632 31.7655C95.3951 32.7793 93.9768 33.2878 92.3095 33.2878C91.3264 33.2878 90.4156 33.096 89.5785 32.7123C88.74 32.3287 87.9836 31.7624 87.3064 31.0119C86.6779 30.3071 86.187 29.479 85.8325 28.5306C85.4779 27.5822 85.3013 26.6186 85.3013 25.6397C85.3013 24.6167 85.4626 23.6592 85.7852 22.7687C86.1078 21.8781 86.5833 21.0759 87.2119 20.3604C87.9043 19.5581 88.6858 18.9492 89.5563 18.5352C90.4268 18.1211 91.3612 17.9141 92.3596 17.9141C93.9865 17.9141 95.3965 18.421 96.5896 19.4364C97.7813 20.4502 98.5669 21.8142 98.9465 23.5253H95.6426V23.5237Z" fill="white" fill-opacity="0.8"/>
<path d="M111.316 32.9051V31.1194C110.945 31.8425 110.424 32.3768 109.751 32.7209C109.078 33.0649 108.218 33.2369 107.17 33.2369C105.204 33.2369 103.563 32.5032 102.245 31.0342C100.928 29.5652 100.269 27.7414 100.269 25.563C100.269 24.5401 100.434 23.5704 100.764 22.6524C101.095 21.7345 101.565 20.9276 102.178 20.2304C102.838 19.4632 103.571 18.8969 104.378 18.53C105.183 18.1647 106.089 17.9805 107.097 17.9805C108.064 17.9805 108.897 18.1571 109.593 18.5102C110.29 18.8634 110.852 19.3962 111.279 20.1117V18.3504H114.3V32.9051H111.316ZM103.436 25.5082C103.436 26.7337 103.809 27.7597 104.554 28.5848C105.299 29.4099 106.208 29.8224 107.28 29.8224C108.254 29.8224 109.112 29.4084 109.853 28.5787C110.595 27.7491 110.966 26.7794 110.966 25.6681C110.966 24.4868 110.593 23.4699 109.848 22.6189C109.103 21.7679 108.231 21.3417 107.231 21.3417C106.184 21.3417 105.29 21.7451 104.549 22.5519C103.807 23.3588 103.436 24.3437 103.436 25.5082Z" fill="white" fill-opacity="0.8"/>
<path d="M116.894 32.9053V13.6406H120.193V32.9053H116.894Z" fill="white" fill-opacity="0.8"/>
<path d="M122.544 32.9053V13.6406H125.844V32.9053H122.544Z" fill="white" fill-opacity="0.8"/>
<path d="M63.7123 17.6776C63.4064 16.8738 62.9698 16.1827 62.4011 15.6042C61.831 15.0257 61.1385 14.5782 60.3208 14.263C59.5046 13.9464 58.5771 13.7881 57.537 13.7881H51.249V32.7559H54.2693V27.0656H57.1657C58.1391 27.0656 59.0513 26.9255 59.9009 26.6454C60.7505 26.3653 61.4931 25.9467 62.1285 25.3865C62.764 24.8263 63.2632 24.1306 63.6261 23.2994C63.9891 22.4682 64.1698 21.5016 64.1698 20.3994V20.3461C64.1698 19.3704 64.0183 18.4813 63.7123 17.6776ZM60.9897 20.5014C60.9897 21.427 60.6963 22.2049 60.1081 22.8321C59.5213 23.4608 58.6939 23.7744 57.6302 23.7744H54.2693V17.1645H57.5467C58.6119 17.1645 59.4518 17.4431 60.0678 17.9988C60.6824 18.5544 60.9897 19.3688 60.9897 20.439V20.5014Z" fill="white" fill-opacity="0.8"/>
</g>
<g clip-path="url(#clip1_361:39956)">
<path d="M42.2447 28.275L42.2044 29.6333L42.0706 28.4871C41.5634 24.1301 39.5767 20.12 36.4838 17.2107C33.3909 14.3014 29.405 12.6933 25.2751 12.6886L13.3501 12.6743L13.3928 11.2519C13.4048 10.8548 13.4961 10.465 13.6605 10.1082C13.825 9.75141 14.059 9.43589 14.3469 9.18257C14.6349 8.92924 14.9702 8.7439 15.3306 8.63883C15.6911 8.53376 16.0684 8.51137 16.4376 8.57314L28.4711 10.5846C32.4008 11.2418 35.9693 13.4024 38.5057 16.6601C41.0422 19.9178 42.3718 24.0483 42.2447 28.275Z" fill="#F86DB8"/>
<path d="M35.4755 38.2992L23.5947 38.2874C20.5358 38.2835 17.5835 37.092 15.2928 34.9368C13.002 32.7817 11.5306 29.8114 11.1551 26.5841L9.83776 15.2789C9.79921 14.9521 9.82656 14.6202 9.918 14.3055C10.0094 13.9908 10.1628 13.7004 10.3681 13.4536C10.5733 13.2068 10.8255 13.0092 11.1081 12.8741C11.3907 12.739 11.6971 12.6694 12.007 12.6699H13.3528L13.086 21.5791C12.9925 24.71 13.978 27.7694 15.8572 30.1823C17.7363 32.5952 20.3798 34.1953 23.2907 34.682L36.5506 36.8996C37.2279 37.0128 37.9201 36.9717 38.5814 36.7788C39.2426 36.586 39.8577 36.2459 40.3859 35.7811C40.9141 35.3164 41.3432 34.7375 41.6449 34.083C41.9466 33.4284 42.114 32.7132 42.1358 31.9846L42.2055 29.6332L42.2657 30.1441C42.3845 31.1662 42.2976 32.2036 42.0106 33.1873C41.7235 34.171 41.243 35.0785 40.6009 35.8497C39.9587 36.621 39.1697 37.2382 38.286 37.6605C37.4023 38.0828 36.4443 38.3005 35.4755 38.2992Z" fill="#3E6FEC"/>
<path d="M42.0709 28.4866C41.5637 24.1296 39.577 20.1196 36.4841 17.2103C33.3912 14.301 29.4053 12.6929 25.2754 12.6881L13.3504 12.6738L13.0852 21.5788C12.9917 24.7097 13.9772 27.7691 15.8564 30.182C17.7355 32.5949 20.379 34.195 23.2899 34.6817L36.5497 36.8993C37.2271 37.0125 37.9193 36.9714 38.5805 36.7785C39.2418 36.5857 39.8569 36.2456 40.385 35.7808C40.9132 35.316 41.3424 34.7372 41.6441 34.0826C41.9458 33.4281 42.1131 32.7129 42.135 31.9843L42.2047 29.6329L42.0709 28.4866Z" fill="#4C2DEB"/>
<path d="M30.1281 31.9719C33.8782 31.9719 36.9183 28.7402 36.9183 24.7536C36.9183 20.7669 33.8782 17.5352 30.1281 17.5352C26.378 17.5352 23.3379 20.7669 23.3379 24.7536C23.3379 28.7402 26.378 31.9719 30.1281 31.9719Z" fill="white"/>
<path d="M29.0755 22.2831C29.0755 22.6326 28.978 22.9743 28.7953 23.265C28.6127 23.5556 28.353 23.7821 28.0492 23.9159C27.7454 24.0497 27.4112 24.0847 27.0887 24.0165C26.7662 23.9483 26.4699 23.78 26.2374 23.5328C26.0049 23.2856 25.8466 22.9707 25.7824 22.6279C25.7183 22.285 25.7512 21.9297 25.877 21.6067C26.0029 21.2838 26.216 21.0078 26.4894 20.8136C26.7628 20.6194 27.0842 20.5157 27.413 20.5157C27.632 20.5132 27.8492 20.5573 28.052 20.6452C28.2547 20.7331 28.4389 20.8632 28.5938 21.0278C28.7486 21.1925 28.871 21.3883 28.9537 21.6038C29.0364 21.8194 29.0779 22.0503 29.0755 22.2831Z" fill="#4C2DEB"/>
</g>
<defs>
<clipPath id="clip0_361:39956">
<rect width="74.3725" height="19.6483" fill="white" transform="translate(51.4707 13.6406)"/>
</clipPath>
<clipPath id="clip1_361:39956">
<rect width="40.5339" height="43.0899" fill="white" transform="translate(6 2)"/>
</clipPath>
</defs>
</svg>
